<?xml version="1.0" encoding="utf-8"?>
<!-- Generator: Adobe Illustrator 18.1.1, SVG Export Plug-In . SVG Version: 6.00 Build 0)  -->
<!DOCTYPE svg PUBLIC "-//W3C//DTD SVG 1.1//EN" "http://www.w3.org/Graphics/SVG/1.1/DTD/svg11.dtd">
<svg version="1.1" id="Layer_1" xmlns="http://www.w3.org/2000/svg" xmlns:xlink="http://www.w3.org/1999/xlink" x="0px" y="0px"
	 viewBox="0 180 612 612" enable-background="new 0 180 612 612" xml:space="preserve">
<rect y="180" fill="#4D827E" width="612" height="612"/>
<g id="Icons_with_numbers">
	<g id="Group" transform="translate(-720.000000, -48.000000)">
		<path id="Shape" fill="#EFEFEF" d="M1119.7,500.4v62.4c0,41.6-41.6,83.2-83.2,83.2v41.6h62.4v20.8H953.2v-20.8h62.4v-41.6
			c-41.6,0-83.2-41.6-83.2-83.2v-62.4h20.8v62.4c0,31.2,31.2,62.4,62.4,62.4h20.8c31.2,0,62.4-31.2,62.4-62.4v-62.4H1119.7z
			 M1015.7,375.5h20.6c23.1,0,41.7,18.6,41.7,41.5v146c0,22.7-18.7,41.5-41.7,41.5h-20.6c-23.1,0-41.7-18.6-41.7-41.5v-146
			C974,394.2,992.7,375.5,1015.7,375.5z"/>
	</g>
</g>
</svg>
